<svg xmlns="http://www.w3.org/2000/svg" width="800" height="640" viewBox="0 0 800 640" fill="none" aria-hidden="true">
  <defs>
    <linearGradient id="g1" x1="120" y1="80" x2="520" y2="520" gradientUnits="userSpaceOnUse">
      <stop stop-color="#FBBF24"/>
      <stop offset="0.45" stop-color="#FB923C"/>
      <stop offset="1" stop-color="#EA580C"/>
    </linearGradient>
    <linearGradient id="g2" x1="480" y1="120" x2="720" y2="480" gradientUnits="userSpaceOnUse">
      <stop stop-color="#FDE68A" stop-opacity="0.9"/>
      <stop offset="1" stop-color="#F59E0B" stop-opacity="0.35"/>
    </linearGradient>
    <linearGradient id="g3" x1="200" y1="400" x2="600" y2="200" gradientUnits="userSpaceOnUse">
      <stop stop-color="#0F172A" stop-opacity="0.08"/>
      <stop offset="1" stop-color="#0F172A" stop-opacity="0.02"/>
    </linearGradient>
    <filter id="blur" x="-20%" y="-20%" width="140%" height="140%">
      <feGaussianBlur stdDeviation="24" result="b"/>
      <feMerge>
        <feMergeNode in="b"/>
        <feMergeNode in="SourceGraphic"/>
      </feMerge>
    </filter>
  </defs>
  <rect width="800" height="640" fill="url(#g3)"/>
  <ellipse cx="620" cy="140" rx="140" ry="120" fill="url(#g2)" opacity="0.85"/>
  <ellipse cx="200" cy="480" rx="180" ry="140" fill="url(#g2)" opacity="0.5"/>
  <g filter="url(#blur)" opacity="0.45">
    <circle cx="420" cy="320" r="160" fill="url(#g1)"/>
  </g>
  <rect x="220" y="160" width="360" height="240" rx="28" fill="white" fill-opacity="0.92" stroke="#E2E8F0" stroke-width="2"/>
  <rect x="250" y="200" width="120" height="88" rx="16" fill="#FEF3C7" stroke="#FCD34D" stroke-width="1.5"/>
  <rect x="400" y="200" width="150" height="88" rx="16" fill="#F1F5F9" stroke="#CBD5E1" stroke-width="1.5"/>
  <rect x="250" y="310" width="300" height="56" rx="14" fill="#F8FAFC" stroke="#E2E8F0" stroke-width="1.5"/>
  <circle cx="180" cy="220" r="10" fill="#F59E0B"/>
  <circle cx="160" cy="380" r="8" fill="#94A3B8"/>
  <circle cx="640" cy="260" r="12" fill="#FBBF24"/>
  <circle cx="680" cy="420" r="9" fill="#64748B"/>
  <path d="M190 220 L250 244" stroke="#F59E0B" stroke-width="2" stroke-opacity="0.5" stroke-linecap="round"/>
  <path d="M370 244 L400 244" stroke="#94A3B8" stroke-width="2" stroke-opacity="0.4" stroke-linecap="round"/>
  <path d="M550 244 L630 260" stroke="#FBBF24" stroke-width="2" stroke-opacity="0.45" stroke-linecap="round"/>
  <path d="M400 338 L640 420" stroke="#CBD5E1" stroke-width="2" stroke-opacity="0.5" stroke-linecap="round" stroke-dasharray="6 10"/>
  <rect x="268" y="218" width="84" height="10" rx="5" fill="#F59E0B" fill-opacity="0.35"/>
  <rect x="268" y="238" width="64" height="8" rx="4" fill="#E2E8F0"/>
  <rect x="418" y="218" width="100" height="10" rx="5" fill="#94A3B8" fill-opacity="0.35"/>
  <rect x="418" y="238" width="72" height="8" rx="4" fill="#E2E8F0"/>
  <rect x="268" y="328" width="200" height="8" rx="4" fill="#E2E8F0"/>
  <rect x="268" y="344" width="140" height="8" rx="4" fill="#E2E8F0"/>
</svg>
